<svg viewBox="0 0 200 200" xmlns="http://www.w3.org/2000/svg">
                    <path fill="#08BDBA" d="M35.4,-54.8C47.5,-47.3,60,-40.2,69.3,-29C78.6,-17.7,84.6,-2.4,80.5,10.1C76.4,22.6,62.2,32.1,50.9,42.9C39.6,53.6,31.2,65.6,19.2,72.1C7.3,78.6,-8.2,79.7,-21.3,74.8C-34.3,69.9,-44.9,59,-52.4,47.2C-59.9,35.4,-64.1,22.6,-66.4,9.3C-68.6,-3.9,-68.8,-17.7,-64.6,-30.7C-60.5,-43.6,-52.1,-55.8,-40.6,-63.5C-29.1,-71.3,-14.5,-74.8,-1.5,-72.5C11.6,-70.3,23.3,-62.3,35.4,-54.8Z" transform="translate(100 100)" />
</svg>