<svg width="125" height="90" viewBox="0 0 256 112" fill="none" xmlns="http://www.w3.org/2000/svg">
                    <path d="M140.443 103.727C139.817 101.948 139.503 99.5012 139.503 96.3876V89.8491H147.96V95.4535C147.96 99.2788 148.452 101.725 149.437 102.793C149.884 103.237 150.51 103.504 151.316 103.593C152.121 103.771 153.15 103.86 154.403 103.86H159.772V112H155.477C152.345 112 149.839 111.689 147.96 111.066C146.081 110.443 144.515 109.554 143.262 108.397C141.92 107.063 140.98 105.506 140.443 103.727Z" fill="white"/>
                    <path d="M147.96 23.1296V16.7245C147.96 12.8992 148.452 10.4973 149.437 9.51875C150.063 8.89603 150.868 8.54019 151.853 8.45123C152.837 8.36227 154.269 8.31779 156.148 8.31779H159.772V0.178008H155.477C152.345 0.178008 149.839 0.489365 147.96 1.11208C146.081 1.64583 144.515 2.53543 143.262 3.78086C141.92 5.02629 140.98 6.5386 140.443 8.31779C139.817 10.097 139.503 12.5434 139.503 15.6569V23.1296H147.96Z" fill="white"/>
                    <path d="M255.06 103.549C255.687 101.77 256 99.3232 256 96.2096V89.8492H247.543V95.2755C247.543 99.1008 247.051 101.547 246.067 102.615C245.619 103.059 244.993 103.326 244.188 103.415C243.382 103.593 242.353 103.682 241.1 103.682H235.731V111.822H240.027C243.159 111.822 245.664 111.511 247.543 110.888C249.423 110.265 250.989 109.376 252.242 108.219C253.584 106.885 254.523 105.328 255.06 103.549Z" fill="white"/>
                    <path d="M247.543 23.1297H256V15.4789C256 12.3654 255.687 9.91897 255.06 8.13978C254.523 6.36059 253.584 4.84828 252.242 3.60285C250.989 2.35742 249.423 1.46782 247.543 0.93407C245.664 0.311356 243.159 0 240.027 0H235.731V8.13978H239.355C241.235 8.13978 242.666 8.18426 243.651 8.27322C244.635 8.36218 245.441 8.71802 246.067 9.34074C247.051 10.3193 247.543 12.7212 247.543 16.5464V23.1297Z" fill="white"/>
                    <path d="M33.155 31.541V72.0175H30.1885V52.7623H2.9665V72.0175H0V31.541H2.9665V50.1602H30.1885V31.541H33.155Z" fill="white"/>
                    <path d="M72.0948 57.6195H45.978C46.0555 59.971 46.6566 62.0719 47.7811 63.9222C48.9057 65.734 50.418 67.1411 52.3181 68.1434C54.257 69.1456 56.4286 69.6468 58.8328 69.6468C60.8104 69.6468 62.633 69.2998 64.3004 68.6059C66.0067 67.8735 67.422 66.8134 68.5466 65.4256L70.2334 67.3338C68.915 68.9143 67.2475 70.1286 65.2311 70.9767C63.2534 71.8248 61.1013 72.2488 58.7746 72.2488C55.7499 72.2488 53.0549 71.5935 50.6894 70.2828C48.324 68.9722 46.4627 67.1604 45.1055 64.8474C43.787 62.5345 43.1278 59.8939 43.1278 56.9256C43.1278 53.9958 43.7482 51.3745 44.9891 49.0616C46.2688 46.7101 48.0138 44.879 50.2241 43.5683C52.4345 42.2576 54.9162 41.6023 57.6694 41.6023C60.4227 41.6023 62.885 42.2576 65.0566 43.5683C67.2669 44.8404 68.9925 46.633 70.2334 48.9459C71.5131 51.2589 72.1529 53.8802 72.1529 56.8099L72.0948 57.6195ZM57.6694 44.1466C55.5367 44.1466 53.6172 44.6284 51.9109 45.5921C50.2047 46.5173 48.8281 47.8473 47.7811 49.582C46.7729 51.2781 46.1912 53.2056 46.0361 55.3643H69.3028C69.1864 53.2056 68.6048 51.2781 67.5578 49.582C66.5108 47.8858 65.1342 46.5559 63.4279 45.5921C61.7217 44.6284 59.8022 44.1466 57.6694 44.1466Z" fill="white"/>
                    <path d="M81.1501 29.1124H84.0584V72.0175H81.1501V29.1124Z" fill="white"/>
                    <path d="M111.556 41.6023C114.387 41.6023 116.946 42.2576 119.234 43.5683C121.522 44.879 123.306 46.6908 124.586 49.0037C125.904 51.3167 126.563 53.9573 126.563 56.9256C126.563 59.8939 125.904 62.5537 124.586 64.9052C123.306 67.2182 121.522 69.03 119.234 70.3407C116.946 71.6128 114.387 72.2488 111.556 72.2488C108.881 72.2488 106.457 71.632 104.285 70.3985C102.114 69.1264 100.427 67.3724 99.2249 65.1365V83.2353H96.3166V41.8336H99.1086V48.9459C100.311 46.633 101.998 44.8404 104.169 43.5683C106.379 42.2576 108.842 41.6023 111.556 41.6023ZM111.382 69.6468C113.708 69.6468 115.802 69.1071 117.664 68.0277C119.525 66.9483 120.979 65.4449 122.026 63.5175C123.112 61.59 123.655 59.3927 123.655 56.9256C123.655 54.4584 123.112 52.2611 122.026 50.3337C120.979 48.4062 119.525 46.9028 117.664 45.8234C115.802 44.7441 113.708 44.2044 111.382 44.2044C109.055 44.2044 106.961 44.7441 105.1 45.8234C103.277 46.9028 101.823 48.4062 100.737 50.3337C99.6903 52.2611 99.1667 54.4584 99.1667 56.9256C99.1667 59.3927 99.6903 61.59 100.737 63.5175C101.823 65.4449 103.277 66.9483 105.1 68.0277C106.961 69.1071 109.055 69.6468 111.382 69.6468Z" fill="white"/>
                    <path d="M179.638 72.68L179.594 52.0414L169.303 69.1216H166.708L156.417 52.3083V72.68H150.868V41.5442H155.656L168.095 62.1828L180.31 41.5442H185.097L185.142 72.68H179.638Z" fill="white"/>
                    <path d="M222.372 72.68L222.327 52.0414L212.036 69.1216H209.441L199.15 52.3083V72.68H193.602V41.5442H198.389L210.828 62.1828L223.043 41.5442H227.831L227.875 72.68H222.372Z" fill="white"/>
                    <path d="M235.799 48.9278H241.391V72.68H235.799V48.9278ZM238.617 45.0136C237.603 45.0136 236.753 44.7022 236.067 44.0795C235.381 43.4272 235.038 42.6265 235.038 41.6776C235.038 40.7287 235.381 39.9429 236.067 39.3202C236.753 38.6678 237.603 38.3416 238.617 38.3416C239.632 38.3416 240.482 38.653 241.168 39.2757C241.854 39.8688 242.197 40.6249 242.197 41.5442C242.197 42.5227 241.854 43.353 241.168 44.035C240.512 44.6874 239.661 45.0136 238.617 45.0136Z" fill="white"/>
                </svg>